<svg width="50" height="50" viewBox="0 0 50 50" fill="none" xmlns="http://www.w3.org/2000/svg">
<path d="M50 25C50 38.8071 38.8071 50 25 50C11.1929 50 0 38.8071 0 25C0 11.1929 11.1929 0 25 0C38.8071 0 50 11.1929 50 25Z" fill="url(#paint0_linear_1_257)"/>
<path d="M15.5 35C14.8125 35 14.2238 34.7673 13.7338 34.3018C13.2438 33.8363 12.9992 33.2773 13 32.625V18.375C13 17.7219 13.245 17.1626 13.735 16.6971C14.225 16.2316 14.8133 15.9992 15.5 16H35.5C36.1875 16 36.7762 16.2328 37.2662 16.6983C37.7562 17.1638 38.0008 17.7227 38 18.375V32.625C38 33.2781 37.755 33.8374 37.265 34.3029C36.775 34.7684 36.1867 35.0008 35.5 35H15.5ZM25.5 26.4797C25.6042 26.4797 25.7137 26.4646 25.8287 26.4346C25.9437 26.4045 26.0529 26.3601 26.1562 26.3016L35 21.0469C35.1667 20.9479 35.2917 20.824 35.375 20.6752C35.4583 20.5264 35.5 20.3633 35.5 20.1859C35.5 19.7901 35.3229 19.4932 34.9688 19.2953C34.6146 19.0974 34.25 19.1073 33.875 19.325L25.5 24.3125L17.125 19.325C16.75 19.1073 16.3854 19.1025 16.0313 19.3108C15.6771 19.519 15.5 19.8107 15.5 20.1859C15.5 20.3839 15.5417 20.5572 15.625 20.7061C15.7083 20.8549 15.8333 20.9685 16 21.0469L24.8438 26.3016C24.9479 26.3609 25.0575 26.4057 25.1725 26.4358C25.2875 26.4658 25.3967 26.4805 25.5 26.4797Z" fill="white"/>
<defs>
<linearGradient id="paint0_linear_1_257" x1="25" y1="0" x2="25" y2="50" gradientUnits="userSpaceOnUse">
<stop/>
<stop offset="1"/>
</linearGradient>
</defs>
</svg>
