<svg width="43" height="41" viewBox="0 0 43 41" fill="none" xmlns="http://www.w3.org/2000/svg">
<g clip-path="url(#clip0_12_2283)">
<path d="M22.1779 38.9945C32.5072 38.9945 40.8808 30.6726 40.8808 20.407C40.8808 10.1415 32.5072 1.81958 22.1779 1.81958C11.8485 1.81958 3.47498 10.1415 3.47498 20.407C3.47498 30.6726 11.8485 38.9945 22.1779 38.9945Z" stroke="#1120A5" stroke-width="3.50952" stroke-linecap="round" stroke-linejoin="round"/>
<path d="M3.47498 20.407H40.8808M29.3713 20.407C29.018 27.2043 26.4988 33.7138 22.1779 38.9945C17.857 33.7138 15.3378 27.2043 14.9845 20.407C15.3378 13.6098 17.857 7.10028 22.1779 1.81958C26.4988 7.10028 29.018 13.6098 29.3713 20.407Z" stroke="#1120A5" stroke-width="3.50952" stroke-linecap="round" stroke-linejoin="round"/>
</g>
<defs>
<clipPath id="clip0_12_2283">
<rect width="42.1142" height="40.9444" fill="white" transform="translate(0.728516)"/>
</clipPath>
</defs>
</svg>
