<svg width="135" height="53" viewBox="0 0 135 53" fill="none" xmlns="http://www.w3.org/2000/svg">
<path fill-rule="evenodd" clip-rule="evenodd" d="M28.8 27.3073C25.7854 30.1171 21.7463 31.5512 16.6829 31.6098C11.6195 31.5512 7.59512 30.1171 4.60976 27.3073C1.59512 24.5268 0.0585366 20.7659 0 16.0244C0.0585366 11.1366 1.59512 7.25854 4.60976 4.39024C7.59512 1.52195 11.6195 0.0585376 16.6829 0C21.7463 0.0585376 25.7854 1.52195 28.8 4.39024C31.7854 7.25854 33.3073 11.1366 33.3658 16.0244C33.3073 20.7659 31.7854 24.5268 28.8 27.3073ZM10.9865 25.0808C12.5674 25.9976 14.4662 26.4764 16.6829 26.5171C19.8732 26.4585 22.4049 25.4927 24.278 23.6195C26.1512 21.7463 27.1024 19.2146 27.1317 16.0244C27.1024 12.7171 26.1512 10.0829 24.278 8.12195C22.4049 6.16098 19.8732 5.15122 16.6829 5.09268C13.4927 5.15122 10.961 6.16098 9.0878 8.12195C7.21463 10.0829 6.26341 12.7171 6.23415 16.0244C6.23794 16.4379 6.25722 16.8403 6.29198 17.2316L6.25853 17.2033C6.25853 22.3913 10.306 27.9919 15.6459 29.0549C13.5578 28.5542 11.9623 26.9593 10.9865 25.0808Z" fill="#1120A5"/>
<path fill-rule="evenodd" clip-rule="evenodd" d="M65.5865 30.7317H58.4743L51.9328 20.0195H44.4255V30.7317H38.2791V0.87805H53.206C57.0401 0.907318 59.9523 1.74146 61.9426 3.38049C63.9328 5.04878 64.9279 7.40488 64.9279 10.4488C64.9279 12.5268 64.3865 14.3268 63.3035 15.8488C62.1913 17.3707 60.5816 18.4976 58.4743 19.2293L65.5865 30.7317ZM53.5133 5.88293H44.4255V15.0146H53.5133C55.123 14.9854 56.3816 14.5317 57.2889 13.6537C58.1962 12.8049 58.6645 11.7366 58.6938 10.4488C58.6645 8.9561 58.1962 7.81463 57.2889 7.02439C56.3816 6.26341 55.123 5.88293 53.5133 5.88293Z" fill="#1120A5"/>
<path d="M101.177 20.7659L95.0748 19.5366C94.4017 21.7024 93.2456 23.4 91.6065 24.6293C89.9382 25.8585 87.7724 26.4878 85.109 26.5171C81.9187 26.4585 79.387 25.4927 77.5139 23.6195C75.6407 21.7463 74.6895 19.2146 74.6602 16.0244C74.6895 12.7171 75.6407 10.0829 77.5139 8.12195C79.387 6.16098 81.9187 5.15122 85.109 5.09268C87.7431 5.12195 89.8797 5.75122 91.5187 6.98049C93.1285 8.20976 94.2846 9.90732 94.987 12.0732L101.002 10.6244C100.036 7.31707 98.1919 4.72683 95.4699 2.85366C92.748 0.980488 89.2943 0.0292679 85.109 0C80.0456 0.0585376 76.0212 1.52195 73.0358 4.39024C70.0212 7.25854 68.4846 11.1366 68.4261 16.0244C68.4846 20.7659 70.0212 24.5268 73.0358 27.3073C76.0212 30.1171 80.0456 31.5512 85.109 31.6098C89.4114 31.5805 92.9236 30.6 95.6456 28.6683C98.3968 26.7658 100.241 24.1317 101.177 20.7659Z" fill="#1120A5"/>
<path fill-rule="evenodd" clip-rule="evenodd" d="M134.037 30.7317H127.364L124.818 24.4537H111.647L109.101 30.7317H102.427L115.071 0.87805H121.393L134.037 30.7317ZM118.232 8.07805L113.666 19.4488H122.798L118.232 8.07805Z" fill="#1120A5"/>
<path d="M64.0361 51.3661V48.4383H66.964V51.3661H64.0361Z" fill="black"/>
<path d="M75.3732 51.7218C74.3933 51.7218 73.5162 51.5519 72.7417 51.212C71.9673 50.8722 71.3074 50.402 70.7622 49.8015C70.2248 49.2009 69.8139 48.4897 69.5294 47.6678C69.2449 46.838 69.1026 45.9372 69.1026 44.9652C69.1026 43.9774 69.2488 43.0725 69.5412 42.2507C69.8415 41.4209 70.2643 40.7058 70.8096 40.1052C71.3548 39.5046 72.0147 39.0383 72.7891 38.7064C73.5715 38.3745 74.4447 38.2086 75.4088 38.2086C76.1358 38.2086 76.8115 38.3034 77.4358 38.4931C78.0601 38.6827 78.6172 38.9554 79.1071 39.311C79.5971 39.6587 80.008 40.0854 80.3399 40.5912C80.6797 41.0969 80.9247 41.6659 81.0748 42.2981L78.23 43.0686C78.0087 42.3732 77.6412 41.8358 77.1276 41.4565C76.6218 41.0772 76.037 40.8875 75.3732 40.8875C74.8201 40.8875 74.338 40.9902 73.9271 41.1957C73.5241 41.3933 73.1882 41.6738 72.9195 42.0373C72.6508 42.3929 72.4493 42.8236 72.315 43.3294C72.1885 43.8272 72.1253 44.3725 72.1253 44.9652C72.1253 45.5737 72.1925 46.1308 72.3268 46.6365C72.4691 47.1344 72.6745 47.5611 72.9432 47.9167C73.2198 48.2723 73.5596 48.5489 73.9626 48.7465C74.3657 48.944 74.8359 49.0428 75.3732 49.0428C76.1398 49.0428 76.7404 48.869 77.175 48.5213C77.6096 48.1736 77.9376 47.6718 78.1588 47.0158L81.0748 47.6678C80.6718 48.9796 79.9804 49.9832 79.0005 50.6786C78.0205 51.374 76.8115 51.7218 75.3732 51.7218Z" fill="black"/>
<path d="M87.8088 51.7218C86.8526 51.7218 85.9834 51.5558 85.201 51.2239C84.4187 50.892 83.747 50.4297 83.1859 49.837C82.6327 49.2443 82.202 48.5331 81.8939 47.7034C81.5936 46.8736 81.4434 45.9609 81.4434 44.9652C81.4434 43.9695 81.5975 43.0567 81.9057 42.227C82.2139 41.3972 82.6446 40.686 83.1978 40.0933C83.7588 39.4927 84.4305 39.0304 85.2129 38.7064C85.9952 38.3745 86.8605 38.2086 87.8088 38.2086C88.7729 38.2086 89.6461 38.3745 90.4285 38.7064C91.2108 39.0304 91.8825 39.4927 92.4436 40.0933C93.0047 40.686 93.4354 41.3972 93.7357 42.227C94.0439 43.0567 94.1979 43.9695 94.1979 44.9652C94.1979 45.9609 94.0439 46.8736 93.7357 47.7034C93.4275 48.5331 92.9928 49.2483 92.4318 49.8489C91.8786 50.4416 91.2069 50.9039 90.4166 51.2358C89.6343 51.5598 88.765 51.7218 87.8088 51.7218ZM87.8088 49.0428C88.3462 49.0428 88.8243 48.9519 89.2431 48.7702C89.6619 48.5805 90.0136 48.3119 90.2981 47.9641C90.5826 47.6085 90.7999 47.1778 90.95 46.6721C91.1002 46.1663 91.1753 45.5974 91.1753 44.9652C91.1753 44.3251 91.1002 43.7521 90.95 43.2464C90.8078 42.7406 90.5944 42.3139 90.31 41.9662C90.0255 41.6106 89.6738 41.3419 89.255 41.1601C88.8361 40.9784 88.3541 40.8875 87.8088 40.8875C86.7183 40.8875 85.8885 41.2471 85.3196 41.9662C84.7506 42.6774 84.4661 43.6771 84.4661 44.9652C84.4661 45.6053 84.5372 46.1782 84.6795 46.6839C84.8296 47.1897 85.0469 47.6164 85.3314 47.9641C85.6159 48.3119 85.9636 48.5805 86.3745 48.7702C86.7934 48.9519 87.2715 49.0428 87.8088 49.0428Z" fill="black"/>
<path d="M107.739 34.2969V51.3661H104.894V49.6474C104.507 50.3033 103.989 50.813 103.341 51.1765C102.701 51.54 101.903 51.7218 100.947 51.7218C100.109 51.7218 99.3345 51.5558 98.6233 51.2239C97.9199 50.892 97.3075 50.4297 96.7859 49.837C96.2723 49.2364 95.8693 48.5213 95.5769 47.6915C95.2924 46.8618 95.1501 45.953 95.1501 44.9652C95.1501 43.9695 95.2924 43.0567 95.5769 42.227C95.8693 41.3972 96.2723 40.686 96.7859 40.0933C97.3075 39.4927 97.9199 39.0304 98.6233 38.7064C99.3345 38.3745 100.109 38.2086 100.947 38.2086C101.911 38.2086 102.713 38.3943 103.353 38.7657C103.993 39.1292 104.507 39.635 104.894 40.283V34.2969H107.739ZM101.539 40.8875C100.978 40.8875 100.484 40.9863 100.058 41.1839C99.6387 41.3814 99.2871 41.6619 99.0026 42.0255C98.726 42.3811 98.5166 42.8118 98.3743 43.3175C98.24 43.8154 98.1728 44.3646 98.1728 44.9652C98.1728 45.5816 98.2439 46.1426 98.3862 46.6484C98.5284 47.1462 98.7378 47.573 99.0144 47.9286C99.2989 48.2842 99.6506 48.5608 100.069 48.7583C100.496 48.948 100.986 49.0428 101.539 49.0428C102.116 49.0428 102.614 48.944 103.033 48.7465C103.452 48.5489 103.799 48.2723 104.076 47.9167C104.353 47.5532 104.558 47.1225 104.692 46.6247C104.827 46.1189 104.894 45.5658 104.894 44.9652C104.894 44.3409 104.823 43.7798 104.68 43.2819C104.538 42.7762 104.325 42.3455 104.04 41.9899C103.764 41.6343 103.416 41.3617 102.997 41.172C102.578 40.9823 102.092 40.8875 101.539 40.8875Z" fill="black"/>
<path d="M115.778 49.0902C116.513 49.0902 117.122 48.9401 117.604 48.6398C118.086 48.3316 118.469 47.8733 118.754 47.2648L121.575 48.0708C121.077 49.2404 120.326 50.1413 119.323 50.7735C118.319 51.4057 117.138 51.7218 115.778 51.7218C114.822 51.7218 113.949 51.5598 113.159 51.2358C112.376 50.9039 111.705 50.4416 111.144 49.8489C110.591 49.2483 110.16 48.5331 109.852 47.7034C109.543 46.8736 109.389 45.9609 109.389 44.9652C109.389 43.9537 109.543 43.033 109.852 42.2033C110.168 41.3735 110.606 40.6623 111.167 40.0696C111.728 39.4769 112.396 39.0186 113.171 38.6946C113.953 38.3706 114.814 38.2086 115.755 38.2086C116.774 38.2086 117.671 38.3864 118.446 38.742C119.228 39.0976 119.876 39.6034 120.39 40.2593C120.903 40.9152 121.275 41.7094 121.504 42.6419C121.733 43.5664 121.804 44.6056 121.717 45.7594H112.459C112.586 46.8183 112.934 47.6401 113.503 48.2249C114.079 48.8018 114.838 49.0902 115.778 49.0902ZM118.813 43.602C118.742 42.6932 118.438 41.9899 117.9 41.492C117.371 40.9942 116.656 40.7453 115.755 40.7453C114.885 40.7453 114.174 40.9942 113.621 41.492C113.076 41.9899 112.712 42.6932 112.531 43.602H118.813Z" fill="black"/>
<path d="M128.392 51.7218C126.796 51.7218 125.508 51.374 124.528 50.6786C123.548 49.9753 122.94 48.9678 122.702 47.6559L125.63 47.1937C125.788 47.8733 126.104 48.3869 126.579 48.7346C127.061 49.0744 127.685 49.2443 128.452 49.2443C129.147 49.2443 129.696 49.11 130.099 48.8413C130.51 48.5726 130.716 48.1973 130.716 47.7152C130.716 47.573 130.7 47.4465 130.668 47.3359C130.637 47.2174 130.577 47.1107 130.49 47.0158C130.411 46.921 130.301 46.8341 130.158 46.7551C130.024 46.6681 129.846 46.5852 129.625 46.5061C129.19 46.3481 128.479 46.1387 127.491 45.8779C126.749 45.6882 126.104 45.4828 125.559 45.2615C125.014 45.0402 124.56 44.7834 124.196 44.491C123.833 44.1986 123.56 43.8628 123.378 43.4835C123.204 43.0962 123.117 42.6419 123.117 42.1203C123.117 41.5276 123.236 40.9942 123.473 40.52C123.718 40.038 124.062 39.6271 124.504 39.2873C124.947 38.9396 125.48 38.6748 126.104 38.4931C126.729 38.3034 127.42 38.2086 128.179 38.2086C128.914 38.2086 129.589 38.2995 130.206 38.4812C130.83 38.6551 131.375 38.9079 131.842 39.2399C132.308 39.5639 132.687 39.959 132.98 40.4252C133.28 40.8915 133.47 41.413 133.549 41.9899L130.633 42.5115C130.554 41.9425 130.289 41.496 129.838 41.172C129.388 40.8401 128.803 40.6741 128.084 40.6741C127.776 40.6741 127.491 40.7058 127.231 40.769C126.97 40.8322 126.745 40.9231 126.555 41.0416C126.373 41.1601 126.227 41.3024 126.116 41.4683C126.014 41.6264 125.962 41.8002 125.962 41.9899C125.962 42.1638 126.002 42.3139 126.081 42.4403C126.16 42.5589 126.27 42.6695 126.413 42.7722C126.555 42.8671 126.729 42.954 126.934 43.033C127.14 43.112 127.369 43.1911 127.622 43.2701C127.906 43.357 128.242 43.4598 128.629 43.5783C129.017 43.6889 129.455 43.8114 129.945 43.9458C130.617 44.1275 131.186 44.333 131.652 44.5621C132.118 44.7913 132.498 45.0521 132.79 45.3445C133.09 45.629 133.308 45.9569 133.442 46.3283C133.576 46.6998 133.643 47.1186 133.643 47.5848C133.643 48.2249 133.521 48.8018 133.276 49.3155C133.039 49.8291 132.691 50.2638 132.233 50.6194C131.782 50.975 131.233 51.2476 130.585 51.4373C129.937 51.6269 129.206 51.7218 128.392 51.7218Z" fill="black"/>
</svg>
